<?xml version="1.0" standalone="no"?>
<!DOCTYPE svg PUBLIC "-//W3C//DTD SVG 20010904//EN"
 "http://www.w3.org/TR/2001/REC-SVG-20010904/DTD/svg10.dtd">
<svg version="1.0" xmlns="http://www.w3.org/2000/svg"
 width="512.000000pt" height="512.000000pt" viewBox="0 0 512.000000 512.000000"
 preserveAspectRatio="xMidYMid meet">
<metadata>
Created by potrace 1.13, written by Peter Selinger 2001-2015
</metadata>
<g transform="translate(0.000000,512.000000) scale(0.100000,-0.100000)"
fill="#ffffff" stroke="none">
<path d="M2321 5110 c-497 -48 -990 -251 -1376 -565 -114 -92 -294 -274 -384
-387 -229 -287 -417 -675 -495 -1023 -49 -218 -60 -325 -60 -575 0 -250 11
-357 60 -575 79 -355 272 -749 509 -1040 92 -114 274 -294 387 -384 287 -229
675 -417 1023 -495 218 -49 325 -60 575 -60 250 0 357 11 575 60 348 78 736
266 1023 495 193 154 393 373 535 586 63 95 197 338 197 358 0 3 -50 4 -111 3
l-112 -3 -50 -90 c-361 -652 -1022 -1097 -1766 -1191 -149 -19 -433 -19 -582
0 -1070 134 -1911 975 -2045 2045 -19 149 -19 433 0 582 134 1070 975 1911
2045 2045 64 8 195 14 291 14 96 0 227 -6 291 -14 683 -86 1281 -456 1670
-1035 38 -57 81 -125 95 -152 l24 -49 116 0 115 0 -52 101 c-109 212 -270 427
-461 616 -211 209 -404 346 -673 478 -252 124 -486 197 -765 240 -126 19 -468
27 -599 15z"/>
<path d="M2534 4603 c-12 -2 -32 -15 -45 -29 l-24 -26 -3 -848 -2 -848 -54
-31 c-61 -34 -95 -73 -127 -146 -25 -57 -29 -149 -10 -209 l13 -38 -315 -317
c-207 -207 -318 -325 -322 -343 -19 -76 47 -142 122 -123 19 4 137 115 344
322 l317 315 38 -13 c22 -7 67 -12 102 -12 75 1 174 44 218 96 127 150 93 376
-72 468 l-54 31 -2 849 -3 849 -25 24 c-26 25 -61 35 -96 29z"/>
<path d="M4400 2975 l0 -255 -245 0 -245 0 0 -75 0 -75 245 0 245 0 0 -250 0
-250 75 0 75 0 0 250 0 250 255 0 255 0 0 75 0 75 -255 0 -255 0 0 255 0 255
-75 0 -75 0 0 -255z"/>
</g>
</svg>
